name C:/MyDriveSym/Projects/mobilecap/Data\Session20210827_0001\mocap\ForceDataProcessed\DJ3_forces.mot
datacolumns 28
datarows 6
range 2.03200000 2.03450000
endheader 
time	R_ground_force_vx	R_ground_force_vy	R_ground_force_vz	R_ground_force_px	R_ground_force_py	R_ground_force_pz	R_ground_torque_x	R_ground_torque_y	R_ground_torque_z	L_ground_force_vx	L_ground_force_vy	L_ground_force_vz	L_ground_force_px	L_ground_force_py	L_ground_force_pz	L_ground_torque_x	L_ground_torque_y	L_ground_torque_z	3_ground_force_vx	3_ground_force_vy	3_ground_force_vz	3_ground_force_px	3_ground_force_py	3_ground_force_pz	3_ground_torque_x	3_ground_torque_y	3_ground_torque_z	
          2.03200000	        -10.39653500	        598.47513400	        -73.95973300	         -0.13594200	          0.00600000	         -0.45819900	          0.00000000	         -5.53555000	          0.00000000	        -45.43448500	        634.43115900	         62.59327500	         -0.10382600	          0.00600000	         -0.77542000	          0.00000000	          6.26537600	          0.00000000	          0.00000000	          0.00000000	          0.00000000	          0.00000000	          0.00000000	          0.00000000	          0.00000000	          0.00000000	          0.00000000	
          2.03250000	        -10.75285600	        599.80891600	        -74.15708800	         -0.13597500	          0.00600000	         -0.45819400	          0.00000000	         -5.56183100	          0.00000000	        -45.64925500	        635.44641300	         62.56550000	         -0.10383100	          0.00600000	         -0.77541200	          0.00000000	          6.28186700	          0.00000000	          0.00000000	          0.00000000	          0.00000000	          0.00000000	          0.00000000	          0.00000000	          0.00000000	          0.00000000	          0.00000000	
          2.03300000	        -11.10424700	        601.15332300	        -74.35424800	         -0.13601000	          0.00600000	         -0.45818800	          0.00000000	         -5.58810600	          0.00000000	        -45.85874300	        636.46391800	         62.54012900	         -0.10383700	          0.00600000	         -0.77540500	          0.00000000	          6.29795900	          0.00000000	          0.00000000	          0.00000000	          0.00000000	          0.00000000	          0.00000000	          0.00000000	          0.00000000	          0.00000000	          0.00000000	
          2.03350000	        -11.45062700	        602.50821800	        -74.55134200	         -0.13604500	          0.00600000	         -0.45818100	          0.00000000	         -5.61434100	          0.00000000	        -46.06308300	        637.48366700	         62.51728600	         -0.10384300	          0.00600000	         -0.77539800	          0.00000000	          6.31362900	          0.00000000	          0.00000000	          0.00000000	          0.00000000	          0.00000000	          0.00000000	          0.00000000	          0.00000000	          0.00000000	          0.00000000	
          2.03400000	        -11.79193000	        603.87340900	        -74.74848200	         -0.13608000	          0.00600000	         -0.45817400	          0.00000000	         -5.64049800	          0.00000000	        -46.26243200	        638.50562600	         62.49709900	         -0.10384900	          0.00600000	         -0.77539200	          0.00000000	          6.32885400	          0.00000000	          0.00000000	          0.00000000	          0.00000000	          0.00000000	          0.00000000	          0.00000000	          0.00000000	          0.00000000	          0.00000000	
          2.03450000	        -12.12810800	        605.24865300	        -74.94576300	         -0.13611600	          0.00600000	         -0.45816600	          0.00000000	         -5.66653900	          0.00000000	        -46.45696600	        639.52972800	         62.47971200	         -0.10385500	          0.00600000	         -0.77538700	          0.00000000	          6.34361100	          0.00000000	          0.00000000	          0.00000000	          0.00000000	          0.00000000	          0.00000000	          0.00000000	          0.00000000	          0.00000000	          0.00000000	
